<svg width="41" height="41" viewBox="0 0 41 41" fill="none" xmlns="http://www.w3.org/2000/svg">
<g clip-path="url(#clip0_6451_41)">
<path d="M31.2199 19.3313L13.4194 1.53111C13.0077 1.11908 12.4581 0.892091 11.8721 0.89209C11.2861 0.89209 10.7365 1.11908 10.3248 1.53111L9.01394 2.84167C8.16094 3.69564 8.16094 5.0836 9.01394 5.93628L23.9615 20.8838L8.99735 35.8479C8.58565 36.2599 8.35833 36.8092 8.35833 37.3949C8.35833 37.9812 8.58565 38.5305 8.99735 38.9428L10.3082 40.2531C10.7203 40.6651 11.2695 40.8921 11.8555 40.8921C12.4415 40.8921 12.9911 40.6651 13.4028 40.2531L31.2199 22.4366C31.6326 22.0233 31.8593 21.4714 31.858 20.8848C31.8593 20.2958 31.6326 19.7443 31.2199 19.3313Z" fill="white"/>
</g>
<defs>
<clipPath id="clip0_6451_41">
<rect width="40" height="40" fill="white" transform="translate(0.108154 0.89209)"/>
</clipPath>
</defs>
</svg>
