<svg width="41" height="40" viewBox="0 0 41 40" fill="none" xmlns="http://www.w3.org/2000/svg">
<g clip-path="url(#clip0_6451_37)">
<path d="M8.99625 21.5608L26.7968 39.361C27.2085 39.773 27.758 40 28.3441 40C28.9301 40 29.4797 39.773 29.8914 39.361L31.2022 38.0504C32.0552 37.1964 32.0552 35.8085 31.2022 34.9558L16.2547 20.0083L31.2188 5.04417C31.6305 4.63214 31.8578 4.08288 31.8578 3.49719C31.8578 2.91086 31.6305 2.36159 31.2188 1.94924L29.9079 0.639003C29.4959 0.226974 28.9466 -1.53599e-05 28.3606 -1.53087e-05C27.7746 -1.52574e-05 27.225 0.226974 26.8133 0.639003L8.99625 18.4555C8.58357 18.8688 8.3569 19.4206 8.3582 20.0073C8.3569 20.5962 8.58357 21.1478 8.99625 21.5608Z" fill="white"/>
</g>
<defs>
<clipPath id="clip0_6451_37">
<rect width="40" height="40" fill="white" transform="translate(40.108 40) rotate(180)"/>
</clipPath>
</defs>
</svg>
