<?xml version="1.0" standalone="no"?>
<!DOCTYPE svg PUBLIC "-//W3C//DTD SVG 20010904//EN"
 "http://www.w3.org/TR/2001/REC-SVG-20010904/DTD/svg10.dtd">
<svg version="1.0" xmlns="http://www.w3.org/2000/svg"
 width="70.000000pt" height="70.000000pt" viewBox="0 0 70.000000 70.000000"
 preserveAspectRatio="xMidYMid meet">
<metadata>
Created by potrace 1.14, written by Peter Selinger 2001-2017
</metadata>
<g transform="translate(0.000000,70.000000) scale(0.100000,-0.100000)"
fill="#000000" stroke="none">
<path d="M257 543 c-61 -21 -135 -87 -165 -146 -30 -59 -43 -181 -19 -171 10
4 18 25 23 62 8 68 35 126 78 166 170 160 446 39 446 -196 0 -28 4 -38 16 -38
14 0 16 10 12 68 -8 108 -66 195 -163 242 -62 30 -163 36 -228 13z"/>
<path d="M381 333 c-43 -46 -55 -53 -62 -41 -5 9 -26 25 -47 36 l-38 20 -101
-98 c-56 -54 -93 -96 -83 -93 10 3 35 23 55 44 20 21 42 39 49 39 8 0 28 17
44 37 l30 38 26 -28 c28 -31 35 -47 11 -27 -13 11 -14 8 -9 -18 4 -22 1 -33
-13 -43 -30 -23 -48 -49 -33 -49 11 0 99 80 199 181 31 31 54 28 45 -7 -4 -15
-2 -24 5 -24 18 0 12 -21 -11 -41 -16 -13 -18 -19 -8 -18 48 5 52 -9 11 -33
-16 -9 -35 -26 -42 -39 -11 -22 -10 -22 20 4 42 35 84 36 117 0 21 -22 33 -26
84 -27 68 -1 72 9 15 41 -50 28 -87 63 -148 141 -27 34 -52 62 -55 62 -4 0
-31 -26 -61 -57z"/>
</g>
</svg>
